<?xml version="1.0" encoding="utf-8"?>
<!-- Generator: Adobe Illustrator 18.1.1, SVG Export Plug-In . SVG Version: 6.00 Build 0)  -->
<svg version="1.1" id="Layer_1" xmlns="http://www.w3.org/2000/svg" xmlns:xlink="http://www.w3.org/1999/xlink" x="0px" y="0px"
height="50px" width="50px" viewBox="0 0 50 50" enable-background="new 0 0 50 50" xml:space="preserve">
<polygon opacity="0.1" fill="#FFFFFF" enable-background="new    " points="0,0 50,0 50,50 0,50 "/>
<polygon opacity="0.1" fill="#2B3137" enable-background="new    " points="0,0 50,0 50,50 0,50 "/>
<path fill="#59B4D9" d="M9.7,36.8c0,0.7,0.5,1.2,1.2,1.2h28c0.7,0,1.2-0.5,1.2-1.2V17.3H9.7V36.8z"/>
<path fill="#A0A1A2" d="M39,12H11c-0.7,0-1.2,0.5-1.2,1.2v4.4h30.5v-4.4C40.2,12.5,39.7,12,39,12z"/>
<path opacity="0.1" fill="#FFFFFF" enable-background="new    " d="M11,12c-0.7,0-1.2,0.5-1.2,1.2v4.4v2v17.1c0,0.7,0.5,1.2,1.2,1.2
	h11.7l13.7-26H11z"/>
<path fill="#FFFFFF" d="M15,15.2c0,0.8-0.7,1.5-1.5,1.5S12,16,12,15.2c0-0.8,0.7-1.5,1.5-1.5C14.4,13.7,15,14.4,15,15.2"/>
</svg>
